<svg width="174" height="66" viewBox="0 0 174 66" fill="none" xmlns="http://www.w3.org/2000/svg">
<g id="abid">
<mask id="path-1-outside-1_8_42" maskUnits="userSpaceOnUse" x="0" y="0" width="174" height="66" fill="black">
<rect fill="white" width="174" height="66"/>
<path d="M18.3968 63.7133C15.5739 63.5932 12.9012 62.6022 10.3786 60.7403C7.85601 58.8783 5.81391 56.2056 4.25231 52.722C2.75077 49.2385 2 45.0341 2 40.1091C2 35.2441 2.7808 31.0999 4.3424 27.6763C5.904 24.1928 7.9461 21.5501 10.4687 19.7482C12.9913 17.9464 15.7241 17.0454 18.6671 17.0454C20.0485 17.0454 21.3398 17.3457 22.5411 17.9464C23.8024 18.4869 24.9135 19.3878 25.8745 20.6491C26.355 21.2497 26.7454 21.7002 27.0457 22.0005C27.4061 22.2408 27.8565 22.3609 28.3971 22.3609C29.0578 22.3609 29.9587 21.7302 31.0999 20.4689C32.0608 19.3878 33.0819 18.607 34.163 18.1265C35.2441 17.6461 36.5955 17.4058 38.2172 17.4058C40.6797 17.4058 42.4515 17.8863 43.5326 18.8473C44.6738 19.7482 45.6348 21.0696 46.4156 22.8114C47.4366 24.8534 48.1874 27.376 48.6679 30.3791C49.1484 33.3221 49.3886 36.6255 49.3886 40.2893C49.3886 44.5537 49.2385 47.9171 48.9381 50.3796C48.6378 52.7821 48.1573 54.7341 47.4967 56.2356C46.4756 58.8783 45.1843 60.7703 43.6227 61.9115C42.1212 62.9926 40.3493 63.5331 38.3072 63.5331C36.4453 63.5331 34.9138 63.2328 33.7125 62.6322C32.5714 62.0316 31.5803 61.1307 30.7395 59.9294C29.8386 58.7883 29.0578 58.2177 28.3971 58.2177C27.7965 58.2177 27.0157 58.7883 26.0547 59.9294C24.9736 61.1907 23.7723 62.1517 22.451 62.8124C21.1897 63.413 19.8383 63.7133 18.3968 63.7133ZM25.1538 43.1722C25.6943 43.1722 26.1748 43.0821 26.5952 42.902C27.0157 42.7218 27.376 42.4815 27.6763 42.1812C27.9766 41.8209 28.1869 41.4305 28.307 41.01C28.4872 40.5295 28.5773 40.019 28.5773 39.4784C28.5773 38.9379 28.4872 38.4574 28.307 38.037C28.1869 37.5565 27.9766 37.1661 27.6763 36.8658C27.376 36.5054 27.0157 36.2652 26.5952 36.145C26.1748 35.9648 25.6943 35.8747 25.1538 35.8747C24.0726 35.8747 23.2318 36.2051 22.6312 36.8658C22.0305 37.4664 21.7302 38.3373 21.7302 39.4784C21.7302 40.6196 22.0305 41.5205 22.6312 42.1812C23.2318 42.8419 24.0726 43.1722 25.1538 43.1722Z"/>
<path d="M62.269 63.5331C60.2269 63.5331 58.4251 62.9926 56.8635 61.9115C55.3619 60.7703 54.1006 58.8783 53.0796 56.2356C52.6591 55.2146 52.2988 53.9533 51.9985 52.4518C51.7582 50.8902 51.548 48.9081 51.3678 46.5057C51.2477 44.1032 51.1876 41.1301 51.1876 37.5865C51.1876 33.5023 51.3078 29.5382 51.548 25.6943C51.7883 21.7903 52.3889 18.0064 53.3499 14.3427C54.1307 10.9792 55.3619 8.48666 57.0437 6.86499C58.7254 5.24333 61.0978 4.4325 64.161 4.4325C65.8427 4.4325 67.2541 4.64271 68.3953 5.06315C69.5965 5.48358 70.5575 6.11422 71.2783 6.95508C71.6987 7.43558 72.029 8.03619 72.2693 8.75693C72.5696 9.41761 72.7798 10.1984 72.8999 11.0993C73.0801 11.9402 73.1702 12.9012 73.1702 13.9823C73.1702 15.9043 73.5306 17.2857 74.2513 18.1265C74.972 18.9073 75.8429 19.2977 76.864 19.2977C77.2844 19.2977 77.7048 19.2677 78.1253 19.2077C78.5457 19.0875 78.9661 18.9374 79.3866 18.7572C80.1674 18.4569 80.9482 18.1566 81.729 17.8563C82.5698 17.556 83.4708 17.4058 84.4317 17.4058C87.0745 17.4058 89.4769 18.2467 91.6391 19.9284C93.8614 21.6101 95.6332 24.0726 96.9546 27.316C98.2759 30.4992 98.9366 34.4032 98.9366 39.028C98.9366 44.2533 98.1258 48.7279 96.5041 52.4518C94.8825 56.1155 92.8404 58.9084 90.3778 60.8304C87.9153 62.7523 85.3927 63.7133 82.8101 63.7133C80.828 63.7133 79.2064 63.413 77.9451 62.8124C76.6838 62.1517 75.5426 61.1907 74.5216 59.9294C74.0411 59.3288 73.6207 58.9084 73.2603 58.6681C72.8999 58.3678 72.5395 58.2177 72.1792 58.2177C71.7587 58.2177 71.3683 58.3378 71.008 58.578C70.7077 58.8183 70.3173 59.2687 69.8368 59.9294C69.056 61.1307 68.065 62.0316 66.8637 62.6322C65.6625 63.2328 64.1309 63.5331 62.269 63.5331ZM75.5126 43.1722C76.5937 43.1722 77.4346 42.8419 78.0352 42.1812C78.6358 41.5205 78.9361 40.6196 78.9361 39.4784C78.9361 38.3373 78.6358 37.4664 78.0352 36.8658C77.4346 36.2051 76.5937 35.8747 75.5126 35.8747C74.972 35.8747 74.4915 35.9648 74.0711 36.145C73.6507 36.2652 73.2903 36.5054 72.99 36.8658C72.6897 37.1661 72.4495 37.5565 72.2693 38.037C72.1491 38.4574 72.0891 38.9379 72.0891 39.4784C72.0891 40.1992 72.2092 40.8599 72.4495 41.4605C72.7498 42.001 73.1402 42.4215 73.6207 42.7218C74.1612 43.0221 74.7919 43.1722 75.5126 43.1722Z"/>
<path d="M111.899 63.5331C109.496 63.5331 107.574 63.1427 106.133 62.3619C104.691 61.5811 103.55 60.3799 102.709 58.7582C102.109 57.4369 101.628 55.9053 101.268 54.1635C100.967 52.3617 100.757 50.3196 100.637 48.0372C100.517 45.6948 100.457 43.1122 100.457 40.2893C100.457 37.6466 100.487 35.2141 100.547 32.9918C100.667 30.7695 100.877 28.7575 101.178 26.9556C101.538 25.1538 102.049 23.6222 102.709 22.3609C103.55 20.7392 104.691 19.508 106.133 18.6671C107.634 17.8262 109.556 17.4058 111.899 17.4058C116.343 17.4058 119.376 19.0575 120.998 22.3609C121.659 23.6222 122.139 25.1538 122.439 26.9556C122.8 28.7575 123.01 30.7695 123.07 32.9918C123.19 35.2141 123.25 37.6466 123.25 40.2893C123.25 43.1122 123.19 45.6948 123.07 48.0372C122.95 50.3796 122.74 52.4518 122.439 54.2536C122.139 56.0555 121.659 57.6171 120.998 58.9384C119.496 62.0016 116.463 63.5331 111.899 63.5331ZM111.899 15.2436C109.316 15.2436 107.304 14.673 105.862 13.5318C104.421 12.3306 103.7 10.7089 103.7 8.66684C103.7 6.56468 104.421 4.94302 105.862 3.80185C107.304 2.60062 109.316 2 111.899 2C114.481 2 116.493 2.60062 117.935 3.80185C119.376 4.94302 120.097 6.56468 120.097 8.66684C120.097 10.7089 119.376 12.3306 117.935 13.5318C116.493 14.673 114.481 15.2436 111.899 15.2436Z"/>
<path d="M141.218 63.7133C138.395 63.5932 135.722 62.6022 133.2 60.7403C130.677 58.8183 128.635 56.0855 127.074 52.5418C125.572 48.9381 124.821 44.5537 124.821 39.3884C124.821 35.3042 125.392 31.6104 126.533 28.307C127.734 25.0036 129.476 22.3609 131.758 20.3789C134.041 18.3968 136.864 17.4058 140.227 17.4058C141.789 17.4058 143.08 17.616 144.101 18.0365C145.122 18.4569 146.173 19.0275 147.254 19.7482C147.735 20.0485 148.095 20.2888 148.335 20.4689C148.576 20.5891 148.906 20.6491 149.326 20.6491C150.047 20.6491 150.408 20.1386 150.408 19.1176C150.408 18.6971 150.378 18.2467 150.317 17.7662C150.317 17.2256 150.287 16.655 150.227 16.0544C150.227 15.3937 150.227 14.703 150.227 13.9823C150.227 10.6188 150.918 8.18635 152.299 6.68481C153.741 5.18327 156.053 4.4325 159.237 4.4325C162.3 4.4325 164.672 5.24333 166.354 6.86499C168.036 8.48666 169.267 10.9792 170.048 14.3427C170.708 16.7451 171.189 19.2377 171.489 21.8203C171.789 24.3429 171.97 26.9256 172.03 29.5683C172.15 32.211 172.21 34.8837 172.21 37.5865C172.21 42.8719 172.06 46.9261 171.759 49.749C171.459 52.5719 170.979 54.7341 170.318 56.2356C169.297 58.8783 168.006 60.7703 166.444 61.9115C164.942 62.9926 163.171 63.5331 161.129 63.5331C159.267 63.5331 157.735 63.2328 156.534 62.6322C155.393 62.0316 154.402 61.1307 153.561 59.9294C152.66 58.7883 151.879 58.2177 151.218 58.2177C150.618 58.2177 149.837 58.7883 148.876 59.9294C147.795 61.1907 146.594 62.1517 145.272 62.8124C144.011 63.413 142.66 63.7133 141.218 63.7133ZM147.975 43.1722C148.516 43.1722 148.996 43.0821 149.417 42.902C149.837 42.7218 150.197 42.4815 150.498 42.1812C150.798 41.8209 151.008 41.4305 151.128 41.01C151.308 40.5295 151.399 40.019 151.399 39.4784C151.399 38.9379 151.308 38.4574 151.128 38.037C151.008 37.5565 150.798 37.1661 150.498 36.8658C150.197 36.5054 149.837 36.2652 149.417 36.145C148.996 35.9648 148.516 35.8747 147.975 35.8747C146.894 35.8747 146.053 36.2051 145.452 36.8658C144.852 37.4664 144.552 38.3373 144.552 39.4784C144.552 40.6196 144.852 41.5205 145.452 42.1812C146.053 42.8419 146.894 43.1722 147.975 43.1722Z"/>
</mask>
<path d="M18.3968 63.7133C15.5739 63.5932 12.9012 62.6022 10.3786 60.7403C7.85601 58.8783 5.81391 56.2056 4.25231 52.722C2.75077 49.2385 2 45.0341 2 40.1091C2 35.2441 2.7808 31.0999 4.3424 27.6763C5.904 24.1928 7.9461 21.5501 10.4687 19.7482C12.9913 17.9464 15.7241 17.0454 18.6671 17.0454C20.0485 17.0454 21.3398 17.3457 22.5411 17.9464C23.8024 18.4869 24.9135 19.3878 25.8745 20.6491C26.355 21.2497 26.7454 21.7002 27.0457 22.0005C27.4061 22.2408 27.8565 22.3609 28.3971 22.3609C29.0578 22.3609 29.9587 21.7302 31.0999 20.4689C32.0608 19.3878 33.0819 18.607 34.163 18.1265C35.2441 17.6461 36.5955 17.4058 38.2172 17.4058C40.6797 17.4058 42.4515 17.8863 43.5326 18.8473C44.6738 19.7482 45.6348 21.0696 46.4156 22.8114C47.4366 24.8534 48.1874 27.376 48.6679 30.3791C49.1484 33.3221 49.3886 36.6255 49.3886 40.2893C49.3886 44.5537 49.2385 47.9171 48.9381 50.3796C48.6378 52.7821 48.1573 54.7341 47.4967 56.2356C46.4756 58.8783 45.1843 60.7703 43.6227 61.9115C42.1212 62.9926 40.3493 63.5331 38.3072 63.5331C36.4453 63.5331 34.9138 63.2328 33.7125 62.6322C32.5714 62.0316 31.5803 61.1307 30.7395 59.9294C29.8386 58.7883 29.0578 58.2177 28.3971 58.2177C27.7965 58.2177 27.0157 58.7883 26.0547 59.9294C24.9736 61.1907 23.7723 62.1517 22.451 62.8124C21.1897 63.413 19.8383 63.7133 18.3968 63.7133ZM25.1538 43.1722C25.6943 43.1722 26.1748 43.0821 26.5952 42.902C27.0157 42.7218 27.376 42.4815 27.6763 42.1812C27.9766 41.8209 28.1869 41.4305 28.307 41.01C28.4872 40.5295 28.5773 40.019 28.5773 39.4784C28.5773 38.9379 28.4872 38.4574 28.307 38.037C28.1869 37.5565 27.9766 37.1661 27.6763 36.8658C27.376 36.5054 27.0157 36.2652 26.5952 36.145C26.1748 35.9648 25.6943 35.8747 25.1538 35.8747C24.0726 35.8747 23.2318 36.2051 22.6312 36.8658C22.0305 37.4664 21.7302 38.3373 21.7302 39.4784C21.7302 40.6196 22.0305 41.5205 22.6312 42.1812C23.2318 42.8419 24.0726 43.1722 25.1538 43.1722Z" fill="#FFE653"/>
<path d="M62.269 63.5331C60.2269 63.5331 58.4251 62.9926 56.8635 61.9115C55.3619 60.7703 54.1006 58.8783 53.0796 56.2356C52.6591 55.2146 52.2988 53.9533 51.9985 52.4518C51.7582 50.8902 51.548 48.9081 51.3678 46.5057C51.2477 44.1032 51.1876 41.1301 51.1876 37.5865C51.1876 33.5023 51.3078 29.5382 51.548 25.6943C51.7883 21.7903 52.3889 18.0064 53.3499 14.3427C54.1307 10.9792 55.3619 8.48666 57.0437 6.86499C58.7254 5.24333 61.0978 4.4325 64.161 4.4325C65.8427 4.4325 67.2541 4.64271 68.3953 5.06315C69.5965 5.48358 70.5575 6.11422 71.2783 6.95508C71.6987 7.43558 72.029 8.03619 72.2693 8.75693C72.5696 9.41761 72.7798 10.1984 72.8999 11.0993C73.0801 11.9402 73.1702 12.9012 73.1702 13.9823C73.1702 15.9043 73.5306 17.2857 74.2513 18.1265C74.972 18.9073 75.8429 19.2977 76.864 19.2977C77.2844 19.2977 77.7048 19.2677 78.1253 19.2077C78.5457 19.0875 78.9661 18.9374 79.3866 18.7572C80.1674 18.4569 80.9482 18.1566 81.729 17.8563C82.5698 17.556 83.4708 17.4058 84.4317 17.4058C87.0745 17.4058 89.4769 18.2467 91.6391 19.9284C93.8614 21.6101 95.6332 24.0726 96.9546 27.316C98.2759 30.4992 98.9366 34.4032 98.9366 39.028C98.9366 44.2533 98.1258 48.7279 96.5041 52.4518C94.8825 56.1155 92.8404 58.9084 90.3778 60.8304C87.9153 62.7523 85.3927 63.7133 82.8101 63.7133C80.828 63.7133 79.2064 63.413 77.9451 62.8124C76.6838 62.1517 75.5426 61.1907 74.5216 59.9294C74.0411 59.3288 73.6207 58.9084 73.2603 58.6681C72.8999 58.3678 72.5395 58.2177 72.1792 58.2177C71.7587 58.2177 71.3683 58.3378 71.008 58.578C70.7077 58.8183 70.3173 59.2687 69.8368 59.9294C69.056 61.1307 68.065 62.0316 66.8637 62.6322C65.6625 63.2328 64.1309 63.5331 62.269 63.5331ZM75.5126 43.1722C76.5937 43.1722 77.4346 42.8419 78.0352 42.1812C78.6358 41.5205 78.9361 40.6196 78.9361 39.4784C78.9361 38.3373 78.6358 37.4664 78.0352 36.8658C77.4346 36.2051 76.5937 35.8747 75.5126 35.8747C74.972 35.8747 74.4915 35.9648 74.0711 36.145C73.6507 36.2652 73.2903 36.5054 72.99 36.8658C72.6897 37.1661 72.4495 37.5565 72.2693 38.037C72.1491 38.4574 72.0891 38.9379 72.0891 39.4784C72.0891 40.1992 72.2092 40.8599 72.4495 41.4605C72.7498 42.001 73.1402 42.4215 73.6207 42.7218C74.1612 43.0221 74.7919 43.1722 75.5126 43.1722Z" fill="#FFE653"/>
<path d="M111.899 63.5331C109.496 63.5331 107.574 63.1427 106.133 62.3619C104.691 61.5811 103.55 60.3799 102.709 58.7582C102.109 57.4369 101.628 55.9053 101.268 54.1635C100.967 52.3617 100.757 50.3196 100.637 48.0372C100.517 45.6948 100.457 43.1122 100.457 40.2893C100.457 37.6466 100.487 35.2141 100.547 32.9918C100.667 30.7695 100.877 28.7575 101.178 26.9556C101.538 25.1538 102.049 23.6222 102.709 22.3609C103.55 20.7392 104.691 19.508 106.133 18.6671C107.634 17.8262 109.556 17.4058 111.899 17.4058C116.343 17.4058 119.376 19.0575 120.998 22.3609C121.659 23.6222 122.139 25.1538 122.439 26.9556C122.8 28.7575 123.01 30.7695 123.07 32.9918C123.19 35.2141 123.25 37.6466 123.25 40.2893C123.25 43.1122 123.19 45.6948 123.07 48.0372C122.95 50.3796 122.74 52.4518 122.439 54.2536C122.139 56.0555 121.659 57.6171 120.998 58.9384C119.496 62.0016 116.463 63.5331 111.899 63.5331ZM111.899 15.2436C109.316 15.2436 107.304 14.673 105.862 13.5318C104.421 12.3306 103.7 10.7089 103.7 8.66684C103.7 6.56468 104.421 4.94302 105.862 3.80185C107.304 2.60062 109.316 2 111.899 2C114.481 2 116.493 2.60062 117.935 3.80185C119.376 4.94302 120.097 6.56468 120.097 8.66684C120.097 10.7089 119.376 12.3306 117.935 13.5318C116.493 14.673 114.481 15.2436 111.899 15.2436Z" fill="#FFE653"/>
<path d="M141.218 63.7133C138.395 63.5932 135.722 62.6022 133.2 60.7403C130.677 58.8183 128.635 56.0855 127.074 52.5418C125.572 48.9381 124.821 44.5537 124.821 39.3884C124.821 35.3042 125.392 31.6104 126.533 28.307C127.734 25.0036 129.476 22.3609 131.758 20.3789C134.041 18.3968 136.864 17.4058 140.227 17.4058C141.789 17.4058 143.08 17.616 144.101 18.0365C145.122 18.4569 146.173 19.0275 147.254 19.7482C147.735 20.0485 148.095 20.2888 148.335 20.4689C148.576 20.5891 148.906 20.6491 149.326 20.6491C150.047 20.6491 150.408 20.1386 150.408 19.1176C150.408 18.6971 150.378 18.2467 150.317 17.7662C150.317 17.2256 150.287 16.655 150.227 16.0544C150.227 15.3937 150.227 14.703 150.227 13.9823C150.227 10.6188 150.918 8.18635 152.299 6.68481C153.741 5.18327 156.053 4.4325 159.237 4.4325C162.3 4.4325 164.672 5.24333 166.354 6.86499C168.036 8.48666 169.267 10.9792 170.048 14.3427C170.708 16.7451 171.189 19.2377 171.489 21.8203C171.789 24.3429 171.97 26.9256 172.03 29.5683C172.15 32.211 172.21 34.8837 172.21 37.5865C172.21 42.8719 172.06 46.9261 171.759 49.749C171.459 52.5719 170.979 54.7341 170.318 56.2356C169.297 58.8783 168.006 60.7703 166.444 61.9115C164.942 62.9926 163.171 63.5331 161.129 63.5331C159.267 63.5331 157.735 63.2328 156.534 62.6322C155.393 62.0316 154.402 61.1307 153.561 59.9294C152.66 58.7883 151.879 58.2177 151.218 58.2177C150.618 58.2177 149.837 58.7883 148.876 59.9294C147.795 61.1907 146.594 62.1517 145.272 62.8124C144.011 63.413 142.66 63.7133 141.218 63.7133ZM147.975 43.1722C148.516 43.1722 148.996 43.0821 149.417 42.902C149.837 42.7218 150.197 42.4815 150.498 42.1812C150.798 41.8209 151.008 41.4305 151.128 41.01C151.308 40.5295 151.399 40.019 151.399 39.4784C151.399 38.9379 151.308 38.4574 151.128 38.037C151.008 37.5565 150.798 37.1661 150.498 36.8658C150.197 36.5054 149.837 36.2652 149.417 36.145C148.996 35.9648 148.516 35.8747 147.975 35.8747C146.894 35.8747 146.053 36.2051 145.452 36.8658C144.852 37.4664 144.552 38.3373 144.552 39.4784C144.552 40.6196 144.852 41.5205 145.452 42.1812C146.053 42.8419 146.894 43.1722 147.975 43.1722Z" fill="#FFE653"/>
<path d="M18.3968 63.7133C15.5739 63.5932 12.9012 62.6022 10.3786 60.7403C7.85601 58.8783 5.81391 56.2056 4.25231 52.722C2.75077 49.2385 2 45.0341 2 40.1091C2 35.2441 2.7808 31.0999 4.3424 27.6763C5.904 24.1928 7.9461 21.5501 10.4687 19.7482C12.9913 17.9464 15.7241 17.0454 18.6671 17.0454C20.0485 17.0454 21.3398 17.3457 22.5411 17.9464C23.8024 18.4869 24.9135 19.3878 25.8745 20.6491C26.355 21.2497 26.7454 21.7002 27.0457 22.0005C27.4061 22.2408 27.8565 22.3609 28.3971 22.3609C29.0578 22.3609 29.9587 21.7302 31.0999 20.4689C32.0608 19.3878 33.0819 18.607 34.163 18.1265C35.2441 17.6461 36.5955 17.4058 38.2172 17.4058C40.6797 17.4058 42.4515 17.8863 43.5326 18.8473C44.6738 19.7482 45.6348 21.0696 46.4156 22.8114C47.4366 24.8534 48.1874 27.376 48.6679 30.3791C49.1484 33.3221 49.3886 36.6255 49.3886 40.2893C49.3886 44.5537 49.2385 47.9171 48.9381 50.3796C48.6378 52.7821 48.1573 54.7341 47.4967 56.2356C46.4756 58.8783 45.1843 60.7703 43.6227 61.9115C42.1212 62.9926 40.3493 63.5331 38.3072 63.5331C36.4453 63.5331 34.9138 63.2328 33.7125 62.6322C32.5714 62.0316 31.5803 61.1307 30.7395 59.9294C29.8386 58.7883 29.0578 58.2177 28.3971 58.2177C27.7965 58.2177 27.0157 58.7883 26.0547 59.9294C24.9736 61.1907 23.7723 62.1517 22.451 62.8124C21.1897 63.413 19.8383 63.7133 18.3968 63.7133ZM25.1538 43.1722C25.6943 43.1722 26.1748 43.0821 26.5952 42.902C27.0157 42.7218 27.376 42.4815 27.6763 42.1812C27.9766 41.8209 28.1869 41.4305 28.307 41.01C28.4872 40.5295 28.5773 40.019 28.5773 39.4784C28.5773 38.9379 28.4872 38.4574 28.307 38.037C28.1869 37.5565 27.9766 37.1661 27.6763 36.8658C27.376 36.5054 27.0157 36.2652 26.5952 36.145C26.1748 35.9648 25.6943 35.8747 25.1538 35.8747C24.0726 35.8747 23.2318 36.2051 22.6312 36.8658C22.0305 37.4664 21.7302 38.3373 21.7302 39.4784C21.7302 40.6196 22.0305 41.5205 22.6312 42.1812C23.2318 42.8419 24.0726 43.1722 25.1538 43.1722Z" stroke="black" stroke-width="2.92508" mask="url(#path-1-outside-1_8_42)"/>
<path d="M62.269 63.5331C60.2269 63.5331 58.4251 62.9926 56.8635 61.9115C55.3619 60.7703 54.1006 58.8783 53.0796 56.2356C52.6591 55.2146 52.2988 53.9533 51.9985 52.4518C51.7582 50.8902 51.548 48.9081 51.3678 46.5057C51.2477 44.1032 51.1876 41.1301 51.1876 37.5865C51.1876 33.5023 51.3078 29.5382 51.548 25.6943C51.7883 21.7903 52.3889 18.0064 53.3499 14.3427C54.1307 10.9792 55.3619 8.48666 57.0437 6.86499C58.7254 5.24333 61.0978 4.4325 64.161 4.4325C65.8427 4.4325 67.2541 4.64271 68.3953 5.06315C69.5965 5.48358 70.5575 6.11422 71.2783 6.95508C71.6987 7.43558 72.029 8.03619 72.2693 8.75693C72.5696 9.41761 72.7798 10.1984 72.8999 11.0993C73.0801 11.9402 73.1702 12.9012 73.1702 13.9823C73.1702 15.9043 73.5306 17.2857 74.2513 18.1265C74.972 18.9073 75.8429 19.2977 76.864 19.2977C77.2844 19.2977 77.7048 19.2677 78.1253 19.2077C78.5457 19.0875 78.9661 18.9374 79.3866 18.7572C80.1674 18.4569 80.9482 18.1566 81.729 17.8563C82.5698 17.556 83.4708 17.4058 84.4317 17.4058C87.0745 17.4058 89.4769 18.2467 91.6391 19.9284C93.8614 21.6101 95.6332 24.0726 96.9546 27.316C98.2759 30.4992 98.9366 34.4032 98.9366 39.028C98.9366 44.2533 98.1258 48.7279 96.5041 52.4518C94.8825 56.1155 92.8404 58.9084 90.3778 60.8304C87.9153 62.7523 85.3927 63.7133 82.8101 63.7133C80.828 63.7133 79.2064 63.413 77.9451 62.8124C76.6838 62.1517 75.5426 61.1907 74.5216 59.9294C74.0411 59.3288 73.6207 58.9084 73.2603 58.6681C72.8999 58.3678 72.5395 58.2177 72.1792 58.2177C71.7587 58.2177 71.3683 58.3378 71.008 58.578C70.7077 58.8183 70.3173 59.2687 69.8368 59.9294C69.056 61.1307 68.065 62.0316 66.8637 62.6322C65.6625 63.2328 64.1309 63.5331 62.269 63.5331ZM75.5126 43.1722C76.5937 43.1722 77.4346 42.8419 78.0352 42.1812C78.6358 41.5205 78.9361 40.6196 78.9361 39.4784C78.9361 38.3373 78.6358 37.4664 78.0352 36.8658C77.4346 36.2051 76.5937 35.8747 75.5126 35.8747C74.972 35.8747 74.4915 35.9648 74.0711 36.145C73.6507 36.2652 73.2903 36.5054 72.99 36.8658C72.6897 37.1661 72.4495 37.5565 72.2693 38.037C72.1491 38.4574 72.0891 38.9379 72.0891 39.4784C72.0891 40.1992 72.2092 40.8599 72.4495 41.4605C72.7498 42.001 73.1402 42.4215 73.6207 42.7218C74.1612 43.0221 74.7919 43.1722 75.5126 43.1722Z" stroke="black" stroke-width="2.92508" mask="url(#path-1-outside-1_8_42)"/>
<path d="M111.899 63.5331C109.496 63.5331 107.574 63.1427 106.133 62.3619C104.691 61.5811 103.55 60.3799 102.709 58.7582C102.109 57.4369 101.628 55.9053 101.268 54.1635C100.967 52.3617 100.757 50.3196 100.637 48.0372C100.517 45.6948 100.457 43.1122 100.457 40.2893C100.457 37.6466 100.487 35.2141 100.547 32.9918C100.667 30.7695 100.877 28.7575 101.178 26.9556C101.538 25.1538 102.049 23.6222 102.709 22.3609C103.55 20.7392 104.691 19.508 106.133 18.6671C107.634 17.8262 109.556 17.4058 111.899 17.4058C116.343 17.4058 119.376 19.0575 120.998 22.3609C121.659 23.6222 122.139 25.1538 122.439 26.9556C122.8 28.7575 123.01 30.7695 123.07 32.9918C123.19 35.2141 123.25 37.6466 123.25 40.2893C123.25 43.1122 123.19 45.6948 123.07 48.0372C122.95 50.3796 122.74 52.4518 122.439 54.2536C122.139 56.0555 121.659 57.6171 120.998 58.9384C119.496 62.0016 116.463 63.5331 111.899 63.5331ZM111.899 15.2436C109.316 15.2436 107.304 14.673 105.862 13.5318C104.421 12.3306 103.7 10.7089 103.7 8.66684C103.7 6.56468 104.421 4.94302 105.862 3.80185C107.304 2.60062 109.316 2 111.899 2C114.481 2 116.493 2.60062 117.935 3.80185C119.376 4.94302 120.097 6.56468 120.097 8.66684C120.097 10.7089 119.376 12.3306 117.935 13.5318C116.493 14.673 114.481 15.2436 111.899 15.2436Z" stroke="black" stroke-width="2.92508" mask="url(#path-1-outside-1_8_42)"/>
<path d="M141.218 63.7133C138.395 63.5932 135.722 62.6022 133.2 60.7403C130.677 58.8183 128.635 56.0855 127.074 52.5418C125.572 48.9381 124.821 44.5537 124.821 39.3884C124.821 35.3042 125.392 31.6104 126.533 28.307C127.734 25.0036 129.476 22.3609 131.758 20.3789C134.041 18.3968 136.864 17.4058 140.227 17.4058C141.789 17.4058 143.08 17.616 144.101 18.0365C145.122 18.4569 146.173 19.0275 147.254 19.7482C147.735 20.0485 148.095 20.2888 148.335 20.4689C148.576 20.5891 148.906 20.6491 149.326 20.6491C150.047 20.6491 150.408 20.1386 150.408 19.1176C150.408 18.6971 150.378 18.2467 150.317 17.7662C150.317 17.2256 150.287 16.655 150.227 16.0544C150.227 15.3937 150.227 14.703 150.227 13.9823C150.227 10.6188 150.918 8.18635 152.299 6.68481C153.741 5.18327 156.053 4.4325 159.237 4.4325C162.3 4.4325 164.672 5.24333 166.354 6.86499C168.036 8.48666 169.267 10.9792 170.048 14.3427C170.708 16.7451 171.189 19.2377 171.489 21.8203C171.789 24.3429 171.97 26.9256 172.03 29.5683C172.15 32.211 172.21 34.8837 172.21 37.5865C172.21 42.8719 172.06 46.9261 171.759 49.749C171.459 52.5719 170.979 54.7341 170.318 56.2356C169.297 58.8783 168.006 60.7703 166.444 61.9115C164.942 62.9926 163.171 63.5331 161.129 63.5331C159.267 63.5331 157.735 63.2328 156.534 62.6322C155.393 62.0316 154.402 61.1307 153.561 59.9294C152.66 58.7883 151.879 58.2177 151.218 58.2177C150.618 58.2177 149.837 58.7883 148.876 59.9294C147.795 61.1907 146.594 62.1517 145.272 62.8124C144.011 63.413 142.66 63.7133 141.218 63.7133ZM147.975 43.1722C148.516 43.1722 148.996 43.0821 149.417 42.902C149.837 42.7218 150.197 42.4815 150.498 42.1812C150.798 41.8209 151.008 41.4305 151.128 41.01C151.308 40.5295 151.399 40.019 151.399 39.4784C151.399 38.9379 151.308 38.4574 151.128 38.037C151.008 37.5565 150.798 37.1661 150.498 36.8658C150.197 36.5054 149.837 36.2652 149.417 36.145C148.996 35.9648 148.516 35.8747 147.975 35.8747C146.894 35.8747 146.053 36.2051 145.452 36.8658C144.852 37.4664 144.552 38.3373 144.552 39.4784C144.552 40.6196 144.852 41.5205 145.452 42.1812C146.053 42.8419 146.894 43.1722 147.975 43.1722Z" stroke="black" stroke-width="2.92508" mask="url(#path-1-outside-1_8_42)"/>
</g>
</svg>
